<?xml version="1.0"?>
<svg xmlns="http://www.w3.org/2000/svg" width="738" height="427" viewBox="0 0 738 427" fill="none">
<rect x="1" y="1" width="736" height="425" fill="url(#paint0_linear_853_100905)" stroke="#EDEDED" stroke-width="2"/>
<path d="M189 1H1V426H593V383H544.5V342H498V300H453.5V256H405.5V215H360.5V172H315.5V131H273V88H230V47H189V1Z" fill="white" stroke="#EDEDED" stroke-width="2"/>
<path d="M20.798 31V29.366L27.999 19.562V19.524H21.064V17.7H30.393V19.334L23.192 29.138V29.176H30.26V31H20.798ZM31.0724 25.965C31.0724 22.83 32.9914 20.645 35.7464 20.645C38.4824 20.645 40.3064 22.716 40.3064 25.737V26.516H32.9534C32.9724 27.409 33.2384 28.169 33.7514 28.758C34.2644 29.347 34.9294 29.632 35.7464 29.632C37.0194 29.632 37.7794 29.138 38.6154 27.789L40.0594 28.758C39.1664 30.43 37.6844 31.285 35.7654 31.285C32.9724 31.285 31.0724 29.138 31.0724 25.965ZM32.9914 25.091H38.4634C38.3874 23.438 37.3424 22.298 35.7464 22.298C34.2264 22.298 33.0294 23.571 32.9914 25.091ZM42.0612 31V20.93H43.8092V21.766H43.8472C44.2462 21.139 45.0252 20.759 45.9562 20.759C46.3172 20.759 46.6972 20.816 47.0772 20.911L46.7162 22.773C46.3172 22.659 45.9752 22.602 45.6712 22.602C44.5122 22.602 43.9232 23.4 43.9232 25.148V31H42.0612ZM47.3731 25.965C47.3731 22.792 49.3111 20.645 52.1801 20.645C55.0491 20.645 56.9871 22.792 56.9871 25.965C56.9871 29.138 55.0491 31.285 52.1801 31.285C49.3111 31.285 47.3731 29.138 47.3731 25.965ZM55.1251 25.965C55.1251 23.761 54.0041 22.374 52.1801 22.374C50.3561 22.374 49.2351 23.761 49.2351 25.965C49.2351 28.169 50.3561 29.556 52.1801 29.556C54.0041 29.556 55.1251 28.169 55.1251 25.965ZM58.7082 26.25V24.502H63.7812V26.25H58.7082ZM65.0794 26.611L66.9984 26.231C67.2834 28.492 68.4044 29.48 70.6274 29.48C72.2994 29.48 73.3634 28.739 73.3634 27.599C73.3634 26.364 72.5654 25.718 69.9624 24.882C66.7704 23.837 65.7064 22.849 65.7064 21.006C65.7064 18.897 67.4924 17.415 70.0384 17.415C71.3114 17.415 72.3944 17.776 73.2874 18.479C74.1804 19.182 74.7124 20.113 74.9214 21.291L73.0214 21.709C72.6034 20.056 71.6154 19.22 70.0384 19.22C68.5754 19.22 67.6444 19.923 67.6444 21.006C67.6444 21.899 68.3474 22.431 70.6084 23.134C74.0474 24.274 75.3014 25.433 75.3014 27.561C75.3014 29.784 73.3824 31.285 70.5894 31.285C67.3784 31.285 65.4404 29.632 65.0794 26.611ZM76.8335 31V17.13H78.6955V21.823H78.7335C79.3225 21.12 80.3865 20.645 81.4505 20.645C83.7495 20.645 85.2505 22.146 85.2505 24.445V31H83.3885V24.787C83.3885 23.286 82.5335 22.374 81.0895 22.374C79.6455 22.374 78.6955 23.343 78.6955 24.787V31H76.8335ZM86.8953 25.965C86.8953 22.792 88.8333 20.645 91.7023 20.645C94.5713 20.645 96.5093 22.792 96.5093 25.965C96.5093 29.138 94.5713 31.285 91.7023 31.285C88.8333 31.285 86.8953 29.138 86.8953 25.965ZM94.6473 25.965C94.6473 23.761 93.5263 22.374 91.7023 22.374C89.8783 22.374 88.7573 23.761 88.7573 25.965C88.7573 28.169 89.8783 29.556 91.7023 29.556C93.5263 29.556 94.6473 28.169 94.6473 25.965ZM103.124 22.602H100.654V28.34C100.654 29.005 100.92 29.233 101.737 29.233H102.649V31H101.566C99.5327 31 98.7917 30.297 98.7917 28.378V22.602H97.2147V20.93H98.7917V18.574H100.654V20.93H103.124V22.602Z" fill="#1A1A1A"/>
<path d="M63.539 73V59.7H71.709V61.524H65.496V65.799H71.215V67.528H65.496V73H63.539ZM72.5714 67.965C72.5714 64.83 74.4904 62.645 77.2454 62.645C79.9814 62.645 81.8054 64.716 81.8054 67.737V68.516H74.4524C74.4714 69.409 74.7374 70.169 75.2504 70.758C75.7634 71.347 76.4284 71.632 77.2454 71.632C78.5184 71.632 79.2784 71.138 80.1144 69.789L81.5584 70.758C80.6654 72.43 79.1834 73.285 77.2644 73.285C74.4714 73.285 72.5714 71.138 72.5714 67.965ZM74.4904 67.091H79.9624C79.8864 65.438 78.8414 64.298 77.2454 64.298C75.7254 64.298 74.5284 65.571 74.4904 67.091ZM84.8232 73L82.4482 62.93H84.2912L85.9442 70.321H85.9822L88.5092 62.93H90.1622L92.6892 70.321H92.7272L94.3802 62.93H96.2232L93.8482 73H92.0432L89.3452 65.172H89.3072L86.6282 73H84.8232ZM97.1501 68.25V66.502H102.223V68.25H97.1501ZM103.521 68.611L105.44 68.231C105.725 70.492 106.846 71.48 109.069 71.48C110.741 71.48 111.805 70.739 111.805 69.599C111.805 68.364 111.007 67.718 108.404 66.882C105.212 65.837 104.148 64.849 104.148 63.006C104.148 60.897 105.934 59.415 108.48 59.415C109.753 59.415 110.836 59.776 111.729 60.479C112.622 61.182 113.154 62.113 113.363 63.291L111.463 63.709C111.045 62.056 110.057 61.22 108.48 61.22C107.017 61.22 106.086 61.923 106.086 63.006C106.086 63.899 106.789 64.431 109.05 65.134C112.489 66.274 113.743 67.433 113.743 69.561C113.743 71.784 111.824 73.285 109.031 73.285C105.82 73.285 103.882 71.632 103.521 68.611ZM115.275 73V59.13H117.137V63.823H117.175C117.764 63.12 118.828 62.645 119.892 62.645C122.191 62.645 123.692 64.146 123.692 66.445V73H121.83V66.787C121.83 65.286 120.975 64.374 119.531 64.374C118.087 64.374 117.137 65.343 117.137 66.787V73H115.275ZM125.337 67.965C125.337 64.792 127.275 62.645 130.144 62.645C133.013 62.645 134.951 64.792 134.951 67.965C134.951 71.138 133.013 73.285 130.144 73.285C127.275 73.285 125.337 71.138 125.337 67.965ZM133.089 67.965C133.089 65.761 131.968 64.374 130.144 64.374C128.32 64.374 127.199 65.761 127.199 67.965C127.199 70.169 128.32 71.556 130.144 71.556C131.968 71.556 133.089 70.169 133.089 67.965ZM141.566 64.602H139.096V70.34C139.096 71.005 139.362 71.233 140.179 71.233H141.091V73H140.008C137.975 73 137.234 72.297 137.234 70.378V64.602H135.657V62.93H137.234V60.574H139.096V62.93H141.566V64.602Z" fill="#1A1A1A"/>
<path d="M104.779 109.35C104.779 105.189 107.04 102.415 110.441 102.415C113.177 102.415 115.248 104.277 115.59 107.089L113.671 107.412C113.31 105.341 112.208 104.239 110.441 104.239C108.142 104.239 106.736 106.177 106.736 109.35C106.736 112.542 108.142 114.461 110.441 114.461C112.322 114.461 113.424 113.283 113.671 111.003L115.628 111.288C115.495 112.827 114.963 114.062 114.032 114.955C113.101 115.848 111.904 116.285 110.441 116.285C107.002 116.285 104.779 113.549 104.779 109.35ZM117.178 116V102.13H119.04V106.823H119.078C119.667 106.12 120.731 105.645 121.795 105.645C124.094 105.645 125.595 107.146 125.595 109.445V116H123.733V109.787C123.733 108.286 122.878 107.374 121.434 107.374C119.99 107.374 119.04 108.343 119.04 109.787V116H117.178ZM127.278 113.378C127.278 111.687 128.266 110.794 130.831 110.186C132.655 109.73 133.225 109.369 133.225 108.628C133.225 107.811 132.522 107.279 131.382 107.279C130.147 107.279 129.292 108.001 129.045 109.274L127.24 108.894C127.411 107.906 127.867 107.127 128.608 106.538C129.368 105.949 130.299 105.645 131.382 105.645C133.719 105.645 135.163 106.956 135.163 109.084V116H133.453V115.031H133.415C132.864 115.81 131.819 116.285 130.584 116.285C128.589 116.285 127.278 115.145 127.278 113.378ZM133.32 112.599V110.604H133.282C133.111 111.041 132.522 111.345 131.306 111.668C129.71 112.067 129.102 112.504 129.102 113.264C129.102 114.119 129.691 114.613 130.812 114.613C132.275 114.613 133.32 113.758 133.32 112.599ZM137.19 116V105.93H139.052V116H137.19ZM137.095 104.182V102.225H139.128V104.182H137.095ZM141.156 116V105.93H142.942V106.823H142.98C143.588 106.12 144.709 105.645 145.773 105.645C148.072 105.645 149.573 107.146 149.573 109.502V116H147.711V109.787C147.711 108.286 146.856 107.374 145.412 107.374C143.968 107.374 143.018 108.343 143.018 109.787V116H141.156ZM155.499 110.965C155.499 107.792 157.437 105.645 160.306 105.645C163.175 105.645 165.113 107.792 165.113 110.965C165.113 114.138 163.175 116.285 160.306 116.285C157.437 116.285 155.499 114.138 155.499 110.965ZM163.251 110.965C163.251 108.761 162.13 107.374 160.306 107.374C158.482 107.374 157.361 108.761 157.361 110.965C157.361 113.169 158.482 114.556 160.306 114.556C162.13 114.556 163.251 113.169 163.251 110.965ZM167.475 116V107.602H165.689V105.93H167.475V104.847C167.475 103.403 168.406 102.51 170.002 102.51H171.617V104.22H170.211C169.622 104.22 169.337 104.505 169.337 105.075V105.93H171.94V107.602H169.337V116H167.475ZM179.995 116V104.524H175.929V102.7H185.98V104.524H181.952V116H179.995ZM187.238 116V102.13H189.1V106.823H189.138C189.727 106.12 190.791 105.645 191.855 105.645C194.154 105.645 195.655 107.146 195.655 109.445V116H193.793V109.787C193.793 108.286 192.938 107.374 191.494 107.374C190.05 107.374 189.1 108.343 189.1 109.787V116H187.238ZM197.299 110.965C197.299 107.792 199.237 105.645 202.106 105.645C204.975 105.645 206.913 107.792 206.913 110.965C206.913 114.138 204.975 116.285 202.106 116.285C199.237 116.285 197.299 114.138 197.299 110.965ZM205.051 110.965C205.051 108.761 203.93 107.374 202.106 107.374C200.282 107.374 199.161 108.761 199.161 110.965C199.161 113.169 200.282 114.556 202.106 114.556C203.93 114.556 205.051 113.169 205.051 110.965ZM208.469 112.485V105.93H210.331V112.143C210.331 113.758 211.072 114.556 212.592 114.556C213.979 114.556 214.891 113.606 214.891 112.143V105.93H216.753V116H214.967V115.107H214.91C214.302 115.848 213.2 116.285 212.041 116.285C209.78 116.285 208.469 114.898 208.469 112.485ZM219.22 117.919L220.797 117.026C221.462 118.375 222.184 118.869 223.457 118.869C224.996 118.869 225.927 117.824 225.927 116.133V115.031H225.889C225.338 115.81 224.274 116.285 223.001 116.285C220.36 116.285 218.498 114.081 218.498 110.965C218.498 107.868 220.398 105.664 223.02 105.664C224.16 105.664 225.224 106.12 225.889 106.899H225.927V105.93H227.751V116.228C227.751 118.812 226.041 120.56 223.457 120.56C221.538 120.56 219.961 119.572 219.22 117.919ZM225.889 111.839V110.11C225.889 108.609 224.692 107.393 223.172 107.393C221.481 107.393 220.36 108.78 220.36 110.965C220.36 113.169 221.481 114.556 223.229 114.556C224.711 114.556 225.889 113.34 225.889 111.839ZM229.784 116V102.13H231.646V106.823H231.684C232.273 106.12 233.337 105.645 234.401 105.645C236.7 105.645 238.201 107.146 238.201 109.445V116H236.339V109.787C236.339 108.286 235.484 107.374 234.04 107.374C232.596 107.374 231.646 108.343 231.646 109.787V116H229.784ZM245.094 107.602H242.624V113.34C242.624 114.005 242.89 114.233 243.707 114.233H244.619V116H243.536C241.503 116 240.762 115.297 240.762 113.378V107.602H239.185V105.93H240.762V103.574H242.624V105.93H245.094V107.602Z" fill="#1A1A1A"/>
<path d="M148.674 157V145.524H144.608V143.7H154.659V145.524H150.631V157H148.674ZM153.495 151.965C153.495 148.83 155.414 146.645 158.169 146.645C160.905 146.645 162.729 148.716 162.729 151.737V152.516H155.376C155.395 153.409 155.661 154.169 156.174 154.758C156.687 155.347 157.352 155.632 158.169 155.632C159.442 155.632 160.202 155.138 161.038 153.789L162.482 154.758C161.589 156.43 160.107 157.285 158.188 157.285C155.395 157.285 153.495 155.138 153.495 151.965ZM155.414 151.091H160.886C160.81 149.438 159.765 148.298 158.169 148.298C156.649 148.298 155.452 149.571 155.414 151.091ZM164.484 157V146.93H166.27V147.728H166.308C166.84 147.063 167.828 146.645 168.816 146.645C169.88 146.645 170.887 147.139 171.419 147.899H171.457C172.16 147.12 173.129 146.645 174.212 146.645C176.264 146.645 177.803 148.07 177.803 150.084V157H175.979V150.388C175.979 149.172 175.2 148.374 174.003 148.374C172.806 148.374 172.027 149.229 172.027 150.502V157H170.26V150.388C170.26 149.172 169.462 148.374 168.303 148.374C167.087 148.374 166.308 149.229 166.308 150.502V157H164.484ZM179.843 161.275V146.93H181.667V147.861H181.705C182.37 147.12 183.415 146.645 184.574 146.645C187.196 146.645 189.096 148.849 189.096 151.965C189.096 155.081 187.196 157.285 184.593 157.285C183.434 157.285 182.351 156.791 181.743 156.088H181.705V161.275H179.843ZM187.234 151.965C187.234 149.761 186.151 148.374 184.422 148.374C182.902 148.374 181.705 149.59 181.705 151.072V152.839C181.705 154.34 182.883 155.556 184.365 155.556C186.113 155.556 187.234 154.169 187.234 151.965ZM190.461 151.965C190.461 148.83 192.38 146.645 195.135 146.645C197.871 146.645 199.695 148.716 199.695 151.737V152.516H192.342C192.361 153.409 192.627 154.169 193.14 154.758C193.653 155.347 194.318 155.632 195.135 155.632C196.408 155.632 197.168 155.138 198.004 153.789L199.448 154.758C198.555 156.43 197.073 157.285 195.154 157.285C192.361 157.285 190.461 155.138 190.461 151.965ZM192.38 151.091H197.852C197.776 149.438 196.731 148.298 195.135 148.298C193.615 148.298 192.418 149.571 192.38 151.091ZM201.45 157V146.93H203.198V147.766H203.236C203.635 147.139 204.414 146.759 205.345 146.759C205.706 146.759 206.086 146.816 206.466 146.911L206.105 148.773C205.706 148.659 205.364 148.602 205.06 148.602C203.901 148.602 203.312 149.4 203.312 151.148V157H201.45ZM206.726 154.378C206.726 152.687 207.714 151.794 210.279 151.186C212.103 150.73 212.673 150.369 212.673 149.628C212.673 148.811 211.97 148.279 210.83 148.279C209.595 148.279 208.74 149.001 208.493 150.274L206.688 149.894C206.859 148.906 207.315 148.127 208.056 147.538C208.816 146.949 209.747 146.645 210.83 146.645C213.167 146.645 214.611 147.956 214.611 150.084V157H212.901V156.031H212.863C212.312 156.81 211.267 157.285 210.032 157.285C208.037 157.285 206.726 156.145 206.726 154.378ZM212.768 153.599V151.604H212.73C212.559 152.041 211.97 152.345 210.754 152.668C209.158 153.067 208.55 153.504 208.55 154.264C208.55 155.119 209.139 155.613 210.26 155.613C211.723 155.613 212.768 154.758 212.768 153.599ZM221.506 148.602H219.036V154.34C219.036 155.005 219.302 155.233 220.119 155.233H221.031V157H219.948C217.915 157 217.174 156.297 217.174 154.378V148.602H215.597V146.93H217.174V144.574H219.036V146.93H221.506V148.602ZM222.789 153.485V146.93H224.651V153.143C224.651 154.758 225.392 155.556 226.912 155.556C228.299 155.556 229.211 154.606 229.211 153.143V146.93H231.073V157H229.287V156.107H229.23C228.622 156.848 227.52 157.285 226.361 157.285C224.1 157.285 222.789 155.898 222.789 153.485ZM233.198 157V146.93H234.946V147.766H234.984C235.383 147.139 236.162 146.759 237.093 146.759C237.454 146.759 237.834 146.816 238.214 146.911L237.853 148.773C237.454 148.659 237.112 148.602 236.808 148.602C235.649 148.602 235.06 149.4 235.06 151.148V157H233.198ZM238.51 151.965C238.51 148.83 240.429 146.645 243.184 146.645C245.92 146.645 247.744 148.716 247.744 151.737V152.516H240.391C240.41 153.409 240.676 154.169 241.189 154.758C241.702 155.347 242.367 155.632 243.184 155.632C244.457 155.632 245.217 155.138 246.053 153.789L247.497 154.758C246.604 156.43 245.122 157.285 243.203 157.285C240.41 157.285 238.51 155.138 238.51 151.965ZM240.429 151.091H245.901C245.825 149.438 244.78 148.298 243.184 148.298C241.664 148.298 240.467 149.571 240.429 151.091Z" fill="#1A1A1A"/>
<path d="M190.888 199L188.323 185.7H190.337L192.237 195.884H192.275L195.277 185.7H197.12L200.141 195.884H200.179L202.079 185.7H204.074L201.528 199H199.267L196.227 188.797H196.189L193.13 199H190.888ZM204.36 193.965C204.36 190.792 206.298 188.645 209.167 188.645C212.036 188.645 213.974 190.792 213.974 193.965C213.974 197.138 212.036 199.285 209.167 199.285C206.298 199.285 204.36 197.138 204.36 193.965ZM212.112 193.965C212.112 191.761 210.991 190.374 209.167 190.374C207.343 190.374 206.222 191.761 206.222 193.965C206.222 196.169 207.343 197.556 209.167 197.556C210.991 197.556 212.112 196.169 212.112 193.965ZM215.72 199V188.93H217.468V189.766H217.506C217.905 189.139 218.684 188.759 219.615 188.759C219.976 188.759 220.356 188.816 220.736 188.911L220.375 190.773C219.976 190.659 219.634 190.602 219.33 190.602C218.171 190.602 217.582 191.4 217.582 193.148V199H215.72ZM221.987 199V185.13H223.849V193.186H223.887L227.782 188.93H230.29L226.585 192.863L230.518 199H228.352L225.35 194.155H225.312L223.849 195.751V199H221.987ZM238.428 185.13H240.29V199H238.428V190.602H234.666V199H232.804V190.602H231.018V188.93H232.804V187.847C232.804 186.403 233.735 185.51 235.331 185.51H236.946V187.22H235.54C234.951 187.22 234.666 187.505 234.666 188.075V188.93H238.428V185.13ZM242.027 193.965C242.027 190.792 243.965 188.645 246.834 188.645C249.703 188.645 251.641 190.792 251.641 193.965C251.641 197.138 249.703 199.285 246.834 199.285C243.965 199.285 242.027 197.138 242.027 193.965ZM249.779 193.965C249.779 191.761 248.658 190.374 246.834 190.374C245.01 190.374 243.889 191.761 243.889 193.965C243.889 196.169 245.01 197.556 246.834 197.556C248.658 197.556 249.779 196.169 249.779 193.965ZM254.65 199L252.275 188.93H254.118L255.771 196.321H255.809L258.336 188.93H259.989L262.516 196.321H262.554L264.207 188.93H266.05L263.675 199H261.87L259.172 191.172H259.134L256.455 199H254.65ZM266.488 195.618L268.236 195.238C268.559 196.929 269.357 197.632 271.029 197.632C272.264 197.632 273.024 197.157 273.024 196.397C273.024 195.504 272.359 195.124 270.44 194.535C268.008 193.851 266.982 193.11 266.982 191.571C266.982 189.899 268.521 188.645 270.592 188.645C272.625 188.645 274.202 189.804 274.601 191.628L272.853 192.084C272.511 190.887 271.751 190.298 270.592 190.298C269.509 190.298 268.787 190.792 268.787 191.533C268.787 192.16 269.357 192.483 271.048 192.958C273.689 193.737 274.848 194.573 274.848 196.321C274.848 198.126 273.328 199.285 271.029 199.285C268.426 199.285 266.773 197.974 266.488 195.618Z" fill="#1A1A1A"/>
<path d="M233.539 241V227.7H241.69V229.524H235.496V233.286H241.158V235.034H235.496V239.176H241.69V241H233.539ZM246.515 241L242.278 230.93H244.273L247.332 238.492H247.37L250.429 230.93H252.424L248.187 241H246.515ZM252.81 238.378C252.81 236.687 253.798 235.794 256.363 235.186C258.187 234.73 258.757 234.369 258.757 233.628C258.757 232.811 258.054 232.279 256.914 232.279C255.679 232.279 254.824 233.001 254.577 234.274L252.772 233.894C252.943 232.906 253.399 232.127 254.14 231.538C254.9 230.949 255.831 230.645 256.914 230.645C259.251 230.645 260.695 231.956 260.695 234.084V241H258.985V240.031H258.947C258.396 240.81 257.351 241.285 256.116 241.285C254.121 241.285 252.81 240.145 252.81 238.378ZM258.852 237.599V235.604H258.814C258.643 236.041 258.054 236.345 256.838 236.668C255.242 237.067 254.634 237.504 254.634 238.264C254.634 239.119 255.223 239.613 256.344 239.613C257.807 239.613 258.852 238.758 258.852 237.599ZM262.722 241V227.13H264.584V241H262.722ZM266.498 237.485V230.93H268.36V237.143C268.36 238.758 269.101 239.556 270.621 239.556C272.008 239.556 272.92 238.606 272.92 237.143V230.93H274.782V241H272.996V240.107H272.939C272.331 240.848 271.229 241.285 270.07 241.285C267.809 241.285 266.498 239.898 266.498 237.485ZM276.565 238.378C276.565 236.687 277.553 235.794 280.118 235.186C281.942 234.73 282.512 234.369 282.512 233.628C282.512 232.811 281.809 232.279 280.669 232.279C279.434 232.279 278.579 233.001 278.332 234.274L276.527 233.894C276.698 232.906 277.154 232.127 277.895 231.538C278.655 230.949 279.586 230.645 280.669 230.645C283.006 230.645 284.45 231.956 284.45 234.084V241H282.74V240.031H282.702C282.151 240.81 281.106 241.285 279.871 241.285C277.876 241.285 276.565 240.145 276.565 238.378ZM282.607 237.599V235.604H282.569C282.398 236.041 281.809 236.345 280.593 236.668C278.997 237.067 278.389 237.504 278.389 238.264C278.389 239.119 278.978 239.613 280.099 239.613C281.562 239.613 282.607 238.758 282.607 237.599ZM291.345 232.602H288.875V238.34C288.875 239.005 289.141 239.233 289.958 239.233H290.87V241H289.787C287.754 241 287.013 240.297 287.013 238.378V232.602H285.436V230.93H287.013V228.574H288.875V230.93H291.345V232.602ZM291.919 235.965C291.919 232.792 293.857 230.645 296.726 230.645C299.595 230.645 301.533 232.792 301.533 235.965C301.533 239.138 299.595 241.285 296.726 241.285C293.857 241.285 291.919 239.138 291.919 235.965ZM299.671 235.965C299.671 233.761 298.55 232.374 296.726 232.374C294.902 232.374 293.781 233.761 293.781 235.965C293.781 238.169 294.902 239.556 296.726 239.556C298.55 239.556 299.671 238.169 299.671 235.965ZM303.279 241V230.93H305.027V231.766H305.065C305.464 231.139 306.243 230.759 307.174 230.759C307.535 230.759 307.915 230.816 308.295 230.911L307.934 232.773C307.535 232.659 307.193 232.602 306.889 232.602C305.73 232.602 305.141 233.4 305.141 235.148V241H303.279ZM308.271 237.618L310.019 237.238C310.342 238.929 311.14 239.632 312.812 239.632C314.047 239.632 314.807 239.157 314.807 238.397C314.807 237.504 314.142 237.124 312.223 236.535C309.791 235.851 308.765 235.11 308.765 233.571C308.765 231.899 310.304 230.645 312.375 230.645C314.408 230.645 315.985 231.804 316.384 233.628L314.636 234.084C314.294 232.887 313.534 232.298 312.375 232.298C311.292 232.298 310.57 232.792 310.57 233.533C310.57 234.16 311.14 234.483 312.831 234.958C315.472 235.737 316.631 236.573 316.631 238.321C316.631 240.126 315.111 241.285 312.812 241.285C310.209 241.285 308.556 239.974 308.271 237.618Z" fill="#1A1A1A"/>
<path d="M284.443 283L283.569 280.511H277.888L277.014 283H275.038L279.826 269.7H281.65L286.419 283H284.443ZM278.477 278.801H282.98L280.757 272.398H280.719L278.477 278.801ZM287.388 284.919L288.965 284.026C289.63 285.375 290.352 285.869 291.625 285.869C293.164 285.869 294.095 284.824 294.095 283.133V282.031H294.057C293.506 282.81 292.442 283.285 291.169 283.285C288.528 283.285 286.666 281.081 286.666 277.965C286.666 274.868 288.566 272.664 291.188 272.664C292.328 272.664 293.392 273.12 294.057 273.899H294.095V272.93H295.919V283.228C295.919 285.812 294.209 287.56 291.625 287.56C289.706 287.56 288.129 286.572 287.388 284.919ZM294.057 278.839V277.11C294.057 275.609 292.86 274.393 291.34 274.393C289.649 274.393 288.528 275.78 288.528 277.965C288.528 280.169 289.649 281.556 291.397 281.556C292.879 281.556 294.057 280.34 294.057 278.839ZM297.572 277.965C297.572 274.83 299.491 272.645 302.246 272.645C304.982 272.645 306.806 274.716 306.806 277.737V278.516H299.453C299.472 279.409 299.738 280.169 300.251 280.758C300.764 281.347 301.429 281.632 302.246 281.632C303.519 281.632 304.279 281.138 305.115 279.789L306.559 280.758C305.666 282.43 304.184 283.285 302.265 283.285C299.472 283.285 297.572 281.138 297.572 277.965ZM299.491 277.091H304.963C304.887 275.438 303.842 274.298 302.246 274.298C300.726 274.298 299.529 275.571 299.491 277.091ZM308.561 283V272.93H310.347V273.823H310.385C310.993 273.12 312.114 272.645 313.178 272.645C315.477 272.645 316.978 274.146 316.978 276.502V283H315.116V276.787C315.116 275.286 314.261 274.374 312.817 274.374C311.373 274.374 310.423 275.343 310.423 276.787V283H308.561ZM323.871 274.602H321.401V280.34C321.401 281.005 321.667 281.233 322.484 281.233H323.396V283H322.313C320.28 283 319.539 282.297 319.539 280.378V274.602H317.962V272.93H319.539V270.574H321.401V272.93H323.871V274.602ZM325.344 283V272.93H327.206V283H325.344ZM325.249 271.182V269.225H327.282V271.182H325.249ZM328.93 277.965C328.93 274.811 330.868 272.645 333.661 272.645C334.82 272.645 335.808 272.987 336.606 273.652C337.423 274.317 337.917 275.21 338.088 276.331L336.302 276.692C336.055 275.229 335.086 274.374 333.661 274.374C331.913 274.374 330.792 275.761 330.792 277.965C330.792 280.169 331.913 281.556 333.661 281.556C335.086 281.556 336.017 280.739 336.302 279.238L338.088 279.599C337.917 280.72 337.423 281.632 336.606 282.297C335.808 282.962 334.82 283.285 333.661 283.285C330.868 283.285 328.93 281.119 328.93 277.965ZM344.97 283V269.7H346.927V281.176H352.779V283H344.97ZM353.854 277.965C353.854 274.792 355.792 272.645 358.661 272.645C361.53 272.645 363.468 274.792 363.468 277.965C363.468 281.138 361.53 283.285 358.661 283.285C355.792 283.285 353.854 281.138 353.854 277.965ZM361.606 277.965C361.606 275.761 360.485 274.374 358.661 274.374C356.837 274.374 355.716 275.761 355.716 277.965C355.716 280.169 356.837 281.556 358.661 281.556C360.485 281.556 361.606 280.169 361.606 277.965ZM364.834 277.965C364.834 274.792 366.772 272.645 369.641 272.645C372.51 272.645 374.448 274.792 374.448 277.965C374.448 281.138 372.51 283.285 369.641 283.285C366.772 283.285 364.834 281.138 364.834 277.965ZM372.586 277.965C372.586 275.761 371.465 274.374 369.641 274.374C367.817 274.374 366.696 275.761 366.696 277.965C366.696 280.169 367.817 281.556 369.641 281.556C371.465 281.556 372.586 280.169 372.586 277.965ZM376.194 287.275V272.93H378.018V273.861H378.056C378.721 273.12 379.766 272.645 380.925 272.645C383.547 272.645 385.447 274.849 385.447 277.965C385.447 281.081 383.547 283.285 380.944 283.285C379.785 283.285 378.702 282.791 378.094 282.088H378.056V287.275H376.194ZM383.585 277.965C383.585 275.761 382.502 274.374 380.773 274.374C379.253 274.374 378.056 275.59 378.056 277.072V278.839C378.056 280.34 379.234 281.556 380.716 281.556C382.464 281.556 383.585 280.169 383.585 277.965ZM386.437 279.618L388.185 279.238C388.508 280.929 389.306 281.632 390.978 281.632C392.213 281.632 392.973 281.157 392.973 280.397C392.973 279.504 392.308 279.124 390.389 278.535C387.957 277.851 386.931 277.11 386.931 275.571C386.931 273.899 388.47 272.645 390.541 272.645C392.574 272.645 394.151 273.804 394.55 275.628L392.802 276.084C392.46 274.887 391.7 274.298 390.541 274.298C389.458 274.298 388.736 274.792 388.736 275.533C388.736 276.16 389.306 276.483 390.997 276.958C393.638 277.737 394.797 278.573 394.797 280.321C394.797 282.126 393.277 283.285 390.978 283.285C388.375 283.285 386.722 281.974 386.437 279.618Z" fill="#1A1A1A"/>
<path d="M316.539 325V311.7H318.496V323.176H324.348V325H316.539ZM326.313 325V311.7H328.27V323.176H334.122V325H326.313ZM336.087 325V311.7H338.5L342.623 321.751H342.661L346.784 311.7H349.197V325H347.259V315.025H347.221L343.041 325H342.224L338.063 315.025H338.025V325H336.087ZM363.28 319.661V319.68L366.149 325H363.945L361.209 319.813H358.872V325H356.915V311.7H361.931C364.724 311.7 366.396 313.22 366.396 315.747C366.396 317.799 365.256 319.224 363.28 319.661ZM358.872 318.008H361.741C363.508 318.008 364.439 317.21 364.439 315.747C364.439 314.265 363.546 313.524 361.741 313.524H358.872V318.008ZM367.246 319.965C367.246 316.792 369.184 314.645 372.053 314.645C374.922 314.645 376.86 316.792 376.86 319.965C376.86 323.138 374.922 325.285 372.053 325.285C369.184 325.285 367.246 323.138 367.246 319.965ZM374.998 319.965C374.998 317.761 373.877 316.374 372.053 316.374C370.229 316.374 369.108 317.761 369.108 319.965C369.108 322.169 370.229 323.556 372.053 323.556C373.877 323.556 374.998 322.169 374.998 319.965ZM378.416 321.485V314.93H380.278V321.143C380.278 322.758 381.019 323.556 382.539 323.556C383.926 323.556 384.838 322.606 384.838 321.143V314.93H386.7V325H384.914V324.107H384.857C384.249 324.848 383.147 325.285 381.988 325.285C379.727 325.285 378.416 323.898 378.416 321.485ZM393.879 316.602H391.409V322.34C391.409 323.005 391.675 323.233 392.492 323.233H393.404V325H392.321C390.288 325 389.547 324.297 389.547 322.378V316.602H387.97V314.93H389.547V312.574H391.409V314.93H393.879V316.602ZM394.452 319.965C394.452 316.83 396.371 314.645 399.126 314.645C401.862 314.645 403.686 316.716 403.686 319.737V320.516H396.333C396.352 321.409 396.618 322.169 397.131 322.758C397.644 323.347 398.309 323.632 399.126 323.632C400.399 323.632 401.159 323.138 401.995 321.789L403.439 322.758C402.546 324.43 401.064 325.285 399.145 325.285C396.352 325.285 394.452 323.138 394.452 319.965ZM396.371 319.091H401.843C401.767 317.438 400.722 316.298 399.126 316.298C397.606 316.298 396.409 317.571 396.371 319.091ZM405.441 325V314.93H407.189V315.766H407.227C407.626 315.139 408.405 314.759 409.336 314.759C409.697 314.759 410.077 314.816 410.457 314.911L410.096 316.773C409.697 316.659 409.355 316.602 409.051 316.602C407.892 316.602 407.303 317.4 407.303 319.148V325H405.441ZM410.433 321.618L412.181 321.238C412.504 322.929 413.302 323.632 414.974 323.632C416.209 323.632 416.969 323.157 416.969 322.397C416.969 321.504 416.304 321.124 414.385 320.535C411.953 319.851 410.927 319.11 410.927 317.571C410.927 315.899 412.466 314.645 414.537 314.645C416.57 314.645 418.147 315.804 418.546 317.628L416.798 318.084C416.456 316.887 415.696 316.298 414.537 316.298C413.454 316.298 412.732 316.792 412.732 317.533C412.732 318.16 413.302 318.483 414.993 318.958C417.634 319.737 418.793 320.573 418.793 322.321C418.793 324.126 417.273 325.285 414.974 325.285C412.371 325.285 410.718 323.974 410.433 321.618Z" fill="#1A1A1A"/>
<path d="M357.539 367V353.7H365.709V355.524H359.496V359.799H365.215V361.528H359.496V367H357.539ZM367.471 367V356.93H369.333V367H367.471ZM367.376 355.182V353.225H369.409V355.182H367.376ZM371.437 367V356.93H373.223V357.823H373.261C373.869 357.12 374.99 356.645 376.054 356.645C378.353 356.645 379.854 358.146 379.854 360.502V367H377.992V360.787C377.992 359.286 377.137 358.374 375.693 358.374C374.249 358.374 373.299 359.343 373.299 360.787V367H371.437ZM381.499 361.965C381.499 358.83 383.418 356.645 386.173 356.645C388.909 356.645 390.733 358.716 390.733 361.737V362.516H383.38C383.399 363.409 383.665 364.169 384.178 364.758C384.691 365.347 385.356 365.632 386.173 365.632C387.446 365.632 388.206 365.138 389.042 363.789L390.486 364.758C389.593 366.43 388.111 367.285 386.192 367.285C383.399 367.285 381.499 365.138 381.499 361.965ZM383.418 361.091H388.89C388.814 359.438 387.769 358.298 386.173 358.298C384.653 358.298 383.456 359.571 383.418 361.091ZM392.463 362.25V360.502H397.536V362.25H392.463ZM402.919 367V355.524H398.853V353.7H408.904V355.524H404.876V367H402.919ZM408.116 363.485V356.93H409.978V363.143C409.978 364.758 410.719 365.556 412.239 365.556C413.626 365.556 414.538 364.606 414.538 363.143V356.93H416.4V367H414.614V366.107H414.557C413.949 366.848 412.847 367.285 411.688 367.285C409.427 367.285 408.116 365.898 408.116 363.485ZM418.525 367V356.93H420.311V357.823H420.349C420.957 357.12 422.078 356.645 423.142 356.645C425.441 356.645 426.942 358.146 426.942 360.502V367H425.08V360.787C425.08 359.286 424.225 358.374 422.781 358.374C421.337 358.374 420.387 359.343 420.387 360.787V367H418.525ZM428.967 367V356.93H430.829V367H428.967ZM428.872 355.182V353.225H430.905V355.182H428.872ZM432.933 367V356.93H434.719V357.823H434.757C435.365 357.12 436.486 356.645 437.55 356.645C439.849 356.645 441.35 358.146 441.35 360.502V367H439.488V360.787C439.488 359.286 438.633 358.374 437.189 358.374C435.745 358.374 434.795 359.343 434.795 360.787V367H432.933ZM443.717 368.919L445.294 368.026C445.959 369.375 446.681 369.869 447.954 369.869C449.493 369.869 450.424 368.824 450.424 367.133V366.031H450.386C449.835 366.81 448.771 367.285 447.498 367.285C444.857 367.285 442.995 365.081 442.995 361.965C442.995 358.868 444.895 356.664 447.517 356.664C448.657 356.664 449.721 357.12 450.386 357.899H450.424V356.93H452.248V367.228C452.248 369.812 450.538 371.56 447.954 371.56C446.035 371.56 444.458 370.572 443.717 368.919ZM450.386 362.839V361.11C450.386 359.609 449.189 358.393 447.669 358.393C445.978 358.393 444.857 359.78 444.857 361.965C444.857 364.169 445.978 365.556 447.726 365.556C449.208 365.556 450.386 364.34 450.386 362.839Z" fill="#1A1A1A"/>
<path d="M399.589 404.611L401.508 404.231C401.793 406.492 402.914 407.48 405.137 407.48C406.809 407.48 407.873 406.739 407.873 405.599C407.873 404.364 407.075 403.718 404.472 402.882C401.28 401.837 400.216 400.849 400.216 399.006C400.216 396.897 402.002 395.415 404.548 395.415C405.821 395.415 406.904 395.776 407.797 396.479C408.69 397.182 409.222 398.113 409.431 399.291L407.531 399.709C407.113 398.056 406.125 397.22 404.548 397.22C403.085 397.22 402.154 397.923 402.154 399.006C402.154 399.899 402.857 400.431 405.118 401.134C408.557 402.274 409.811 403.433 409.811 405.561C409.811 407.784 407.892 409.285 405.099 409.285C401.888 409.285 399.95 407.632 399.589 404.611ZM411.001 406.378C411.001 404.687 411.989 403.794 414.554 403.186C416.378 402.73 416.948 402.369 416.948 401.628C416.948 400.811 416.245 400.279 415.105 400.279C413.87 400.279 413.015 401.001 412.768 402.274L410.963 401.894C411.134 400.906 411.59 400.127 412.331 399.538C413.091 398.949 414.022 398.645 415.105 398.645C417.442 398.645 418.886 399.956 418.886 402.084V409H417.176V408.031H417.138C416.587 408.81 415.542 409.285 414.307 409.285C412.312 409.285 411.001 408.145 411.001 406.378ZM417.043 405.599V403.604H417.005C416.834 404.041 416.245 404.345 415.029 404.668C413.433 405.067 412.825 405.504 412.825 406.264C412.825 407.119 413.414 407.613 414.535 407.613C415.998 407.613 417.043 406.758 417.043 405.599ZM420.913 409V398.93H422.699V399.728H422.737C423.269 399.063 424.257 398.645 425.245 398.645C426.309 398.645 427.316 399.139 427.848 399.899H427.886C428.589 399.12 429.558 398.645 430.641 398.645C432.693 398.645 434.232 400.07 434.232 402.084V409H432.408V402.388C432.408 401.172 431.629 400.374 430.432 400.374C429.235 400.374 428.456 401.229 428.456 402.502V409H426.689V402.388C426.689 401.172 425.891 400.374 424.732 400.374C423.516 400.374 422.737 401.229 422.737 402.502V409H420.913ZM436.272 413.275V398.93H438.096V399.861H438.134C438.799 399.12 439.844 398.645 441.003 398.645C443.625 398.645 445.525 400.849 445.525 403.965C445.525 407.081 443.625 409.285 441.022 409.285C439.863 409.285 438.78 408.791 438.172 408.088H438.134V413.275H436.272ZM443.663 403.965C443.663 401.761 442.58 400.374 440.851 400.374C439.331 400.374 438.134 401.59 438.134 403.072V404.839C438.134 406.34 439.312 407.556 440.794 407.556C442.542 407.556 443.663 406.169 443.663 403.965ZM447.27 409V395.13H449.132V409H447.27ZM451.236 409V398.93H453.098V409H451.236ZM451.141 397.182V395.225H453.174V397.182H451.141ZM455.203 409V398.93H456.989V399.823H457.027C457.635 399.12 458.756 398.645 459.82 398.645C462.119 398.645 463.62 400.146 463.62 402.502V409H461.758V402.787C461.758 401.286 460.903 400.374 459.459 400.374C458.015 400.374 457.065 401.343 457.065 402.787V409H455.203ZM465.986 410.919L467.563 410.026C468.228 411.375 468.95 411.869 470.223 411.869C471.762 411.869 472.693 410.824 472.693 409.133V408.031H472.655C472.104 408.81 471.04 409.285 469.767 409.285C467.126 409.285 465.264 407.081 465.264 403.965C465.264 400.868 467.164 398.664 469.786 398.664C470.926 398.664 471.99 399.12 472.655 399.899H472.693V398.93H474.517V409.228C474.517 411.812 472.807 413.56 470.223 413.56C468.304 413.56 466.727 412.572 465.986 410.919ZM472.655 404.839V403.11C472.655 401.609 471.458 400.393 469.938 400.393C468.247 400.393 467.126 401.78 467.126 403.965C467.126 406.169 468.247 407.556 469.995 407.556C471.477 407.556 472.655 406.34 472.655 404.839Z" fill="#1A1A1A"/>
<line x1="189" y1="47" x2="2" y2="47" stroke="#EDEDED" stroke-width="2"/>
<line x1="270" y1="88" x2="2" y2="88" stroke="#EDEDED" stroke-width="2"/>
<line x1="283" y1="131" x2="2" y2="131" stroke="#EDEDED" stroke-width="2"/>
<line x1="340" y1="172" x2="2" y2="172" stroke="#EDEDED" stroke-width="2"/>
<line x1="389" y1="215" x2="2" y2="215" stroke="#EDEDED" stroke-width="2"/>
<line x1="436" y1="256" x2="2" y2="256" stroke="#EDEDED" stroke-width="2"/>
<line x1="474" y1="300" x2="2" y2="300" stroke="#EDEDED" stroke-width="2"/>
<line x1="521" y1="342" x2="2" y2="342" stroke="#EDEDED" stroke-width="2"/>
<line x1="558" y1="383" x2="2" y2="383" stroke="#EDEDED" stroke-width="2"/>
<path d="M642.119 400.009V391.304H648.201V392.995H643.96V394.761H647.877V396.378H643.96V398.318H648.226V400.009H642.119ZM649.213 400.009L651.936 395.594L649.287 391.304H651.352L652.994 394.251H653.018L654.66 391.304H656.737L654.075 395.594L656.811 400.009H654.735L653.018 396.937H652.994L651.277 400.009H649.213ZM657.923 400.009V391.304H661.443C663.296 391.304 664.452 392.386 664.452 394.176C664.452 395.967 663.308 397.012 661.418 397.012H659.764V400.009H657.923ZM659.764 395.333H661.405C662.139 395.333 662.612 394.873 662.612 394.164C662.612 393.381 662.214 392.995 661.418 392.995H659.764V395.333ZM666.012 400.009V391.304H672.093V392.995H667.852V394.761H671.77V396.378H667.852V398.318H672.118V400.009H666.012ZM673.851 400.009V391.304H675.406L678.154 396.253H678.179V391.304H679.958V400.009H678.391L675.642 395.047H675.617V400.009H673.851ZM681.393 397.124L683.184 396.751C683.395 398.057 683.93 398.529 685.136 398.529C686.019 398.529 686.504 398.231 686.504 397.671C686.504 397.074 686.044 396.713 684.639 396.266C682.599 395.631 681.778 394.873 681.778 393.567C681.778 392.124 683.009 391.117 684.8 391.117C686.541 391.117 687.735 392.075 688.121 393.667L686.33 394.065C686.081 393.169 685.609 392.784 684.8 392.784C684.067 392.784 683.606 393.119 683.606 393.579C683.606 393.99 683.967 394.263 685.211 394.661C686.342 395.022 687.138 395.445 687.623 395.905C688.108 396.365 688.357 396.95 688.357 397.683C688.357 399.213 687.089 400.196 685.111 400.196C683.009 400.196 681.729 399.101 681.393 397.124ZM695.762 392.995H693.759V398.318H695.762V400.009H689.904V398.318H691.919V392.995H689.904V391.304H695.762V392.995ZM699.87 400.009L696.873 391.304H698.826L700.778 397.397H700.803L702.756 391.304H704.721L701.711 400.009H699.87ZM705.832 400.009V391.304H711.914V392.995H707.673V394.761H711.59V396.378H707.673V398.318H711.939V400.009H705.832Z" fill="white"/>
<defs>
<linearGradient id="paint0_linear_853_100905" x1="369" y1="1" x2="369" y2="312" gradientUnits="userSpaceOnUse">
<stop stop-color="#E76E50" stop-opacity="0"/>
<stop offset="1" stop-color="#E76E50"/>
</linearGradient>
</defs>
</svg>
